<svg width="56" height="56" viewBox="0 0 56 56" fill="none" xmlns="http://www.w3.org/2000/svg">
<path d="M21.1 19L19 35.3929C19 35.8191 19.1598 36.2279 19.4442 36.5293C19.7287 36.8307 20.1144 37 20.5167 37H35.4833C35.8856 37 36.2713 36.8307 36.5558 36.5293C36.8402 36.2279 37 35.8191 37 35.3929L34.9 19H21.1Z" stroke="#313037" stroke-width="2" stroke-linecap="round" stroke-linejoin="round"/>
<path d="M31 25C31 25.5304 30.6839 26.0391 30.1213 26.4142C29.5587 26.7893 28.7956 27 28 27C27.2044 27 26.4413 26.7893 25.8787 26.4142C25.3161 26.0391 25 25.5304 25 25" stroke="#313037" stroke-width="2" stroke-linecap="round" stroke-linejoin="round"/>
</svg>
